<?xml version="1.0" encoding="utf-8"?>
<!-- Generator: Adobe Illustrator 27.5.0, SVG Export Plug-In . SVG Version: 6.00 Build 0)  -->
<svg version="1.1" id="Layer_1" xmlns="http://www.w3.org/2000/svg" xmlns:xlink="http://www.w3.org/1999/xlink" x="0px" y="0px"
	 viewBox="0 0 2000 2000" style="enable-background:new 0 0 2000 2000;" xml:space="preserve">
<style type="text/css">
	.st0{fill:#ED1C24;}
	.st1{fill:#FFFFFF;}
	.st2{fill:none;}
	.st3{font-family:'ComicSansMS-BoldItalic';}
	.st4{font-size:342px;}
</style>
<path class="st0" d="M1339.9,1624c-99.7,41.3-147,155.6-105.7,255.3c41.3,99.7,155.6,147.1,255.3,105.8
	c99.7-41.3,147-155.6,105.7-255.3C1553.8,1630,1439.6,1582.7,1339.9,1624z M1714.2,742.8c-34.9-9.8-62.2-38.5-69.3-74.4
	C1569.6,287.1,1233.8,0,830.5,0C371.9,0,0,372,0,830.8c0,458.9,371.9,830.8,830.5,830.8c193.6,0,369.9-68.6,512.9-177.5
	c27.4-20.9,65.1-27.3,96.8-12.4c50.3,23.5,109.7,38.5,168.9,38.5c215.9,0,390.8-175.1,390.8-391C2000,939.7,1879,788.7,1714.2,742.8
	z"/>
<g>
	<path class="st1" d="M1072.5,1196.7c-0.4,1.1-1.3,1.9-1.9,1.9c-1.5,0-1.5-1.3-8.4-3.2c-5.1-1.5-11.2-2.3-15.8-2.3
		c-2.7,0-13.9,0.2-13.9,9.9c0,7.8,7,9.5,15.8,12.7c6.8,2.3,15.6,4.8,22.3,11.2c5.1,4.6,9.9,11.8,9.9,22.6
		c0,15.6-10.1,33.9-36.1,33.9c-10.1,0-21.7-2.7-31.4-7c-3.6-1.5-8-3.6-8-6.5c0-0.8,0.2-1.7,0.4-2.1l5.1-12.9
		c0.2-0.4,0.6-1.7,1.7-1.7c1.5,0,2.7,1.7,10.8,4.6c5.7,2.1,12.7,4.4,19.4,4.4c9.5,0,12.9-5.3,12.9-10.1c0-8.9-9.3-11.6-17.5-14.3
		c-7.6-2.5-16.7-5.7-22.6-12.2c-5.1-5.5-7-11.8-7-18.6c0-17.3,11.4-35,37.9-35c8,0,17.5,1.7,26.1,5.3c7.6,3.2,6.1,5.5,5.7,6.5
		L1072.5,1196.7z"/>
	<path class="st1" d="M1185.8,1276.8c0,2.3-0.2,2.9-2.9,2.9H1162c-2.3,0-2.9-0.2-2.9-2.9v-64.9c0-4.8,0.4-17.7-12.2-17.7
		c-7.2,0-14.1,5.5-17.1,8.4l-0.4,0.4v73.8c0,2.3-0.2,2.9-2.9,2.9h-20.9c-2.3,0-2.9-0.2-2.9-2.9v-141.7c0-1.9-0.2-2.9,4-3.8l19.4-4
		c0.6-0.2,1.9-0.4,2.7,0.2s0.6,2.5,0.6,4v52.5l1.9-1.7c5.3-4.8,14.6-10.3,27.2-10.3c26.4,0,27.4,23,27.4,33.3L1185.8,1276.8
		L1185.8,1276.8z"/>
	<path class="st1" d="M1255.1,1283.4c-23.2,0-45.8-16-45.8-55.7s22.6-55.7,45.8-55.7s45.8,16,45.8,55.7
		C1300.9,1267.3,1278.3,1283.4,1255.1,1283.4z M1272.4,1227.7c0-16-1.3-34.6-17.3-34.6s-17.3,18.6-17.3,34.6s0.8,34.6,17.3,34.6
		C1271.3,1262.3,1272.4,1243.9,1272.4,1227.7z"/>
	<path class="st1" d="M1352.7,1316.5c0,1.9,0.2,2.9-4,3.8l-19.4,4c-1.7,0.4-3.4,1.1-3.4-2.9v-108.2c0-18.1-1.7-25.1-3.2-29.5
		c-0.6-2.1-0.8-2.7-0.8-3.4c0-1.3,1.3-1.9,2.3-2.3l16-5.3c3.4-1.1,5.5-1.7,7.8,4.6c0.8,1.9,1.3,3.8,1.9,5.7c8.9-8.2,17.9-11,26.4-11
		c16.4,0,37.1,8.6,37.1,54.8c0,15.8-0.8,56.5-38.8,56.5c-13.3,0-19-4-21.1-5.1l-0.8-0.4V1316.5L1352.7,1316.5z M1352.7,1258.3
		c6.1,3.8,12.2,4,15.2,4c4.8,0,11.4-1.3,15.4-8.9c2.5-4.6,3.4-10.8,3.4-27.2c0-12.9-0.4-33.1-17.7-33.1c-6.8,0-12,3.8-15.4,7.2
		l-0.8,0.8L1352.7,1258.3L1352.7,1258.3z"/>
</g>
<rect x="294" y="734" class="st2" width="913" height="293"/>
<rect x="127" y="615" class="st2" width="1481" height="507"/>
<text transform="matrix(1 0 0 1 90 805.89)" class="st1 st3 st4">MeMedia</text>
</svg>
